<?xml version="1.0" standalone="no"?>
<!DOCTYPE svg PUBLIC "-//W3C//DTD SVG 20010904//EN"
 "http://www.w3.org/TR/2001/REC-SVG-20010904/DTD/svg10.dtd">
<svg version="1.0" xmlns="http://www.w3.org/2000/svg"
 width="800.000000pt" height="800.000000pt" viewBox="0 0 800.000000 800.000000"
 preserveAspectRatio="xMidYMid meet">
<metadata>
Created by potrace 1.11, written by Peter Selinger 2001-2013
</metadata>
<g transform="translate(0.000000,800.000000) scale(0.100000,-0.100000)"
fill="#000000" stroke="none">
<path d="M3698 6825 c-1 -2 -61 -6 -133 -10 -71 -3 -143 -8 -160 -10 -16 -2
-61 -7 -100 -10 -120 -10 -359 -41 -451 -59 -28 -6 -93 -17 -119 -21 -16 -3
-155 -33 -225 -50 -200 -48 -590 -187 -611 -218 -3 -5 -9 -8 -13 -7 -11 3
-196 -104 -196 -112 0 -5 -5 -8 -11 -8 -17 0 -187 -176 -224 -231 -5 -9 -33
-51 -62 -95 -29 -43 -56 -83 -60 -89 -5 -5 -20 -33 -35 -62 -14 -28 -45 -85
-67 -126 -22 -41 -38 -77 -34 -81 3 -3 2 -6 -4 -6 -11 0 -37 -57 -34 -72 0 -5
-3 -8 -7 -8 -4 0 -14 -17 -21 -37 -8 -21 -22 -57 -33 -80 -11 -23 -41 -95 -67
-160 l-48 -118 -399 -1 c-365 -1 -460 -5 -474 -23 -3 -3 -14 -11 -25 -17 -34
-18 -81 -97 -83 -140 -2 -32 18 -152 43 -264 7 -34 64 -307 68 -330 8 -42 36
-103 60 -128 48 -52 90 -64 229 -65 71 0 131 -4 134 -8 4 -7 -6 -22 -41 -63
-104 -119 -228 -407 -251 -581 -1 -11 -6 -36 -10 -55 -16 -77 -10 -362 11
-475 41 -218 171 -495 298 -628 12 -13 42 -45 67 -71 l45 -47 1 -407 c0 -224
4 -423 8 -442 24 -103 106 -190 211 -223 42 -13 109 -15 465 -14 273 2 424 6
440 14 14 6 29 11 33 11 11 1 78 52 95 72 72 86 84 134 84 347 l0 173 151 0
c184 1 3619 1 3767 0 l105 0 1 -177 c0 -217 13 -268 83 -343 44 -47 118 -89
171 -97 14 -2 205 -4 425 -4 384 -1 402 0 456 20 78 29 150 102 179 178 21 56
22 73 22 466 l1 408 62 66 c70 72 159 192 199 268 15 28 31 57 36 65 18 30 80
198 80 217 0 11 3 23 7 27 4 3 8 13 9 20 1 8 7 38 13 68 19 84 25 154 25 283
0 107 -4 156 -19 260 -5 34 -29 128 -49 195 -4 14 -11 34 -15 45 -66 162 -134
280 -226 390 -14 16 -25 32 -25 35 0 3 63 6 140 7 122 1 145 4 185 23 63 31
107 93 119 170 2 8 6 29 10 45 3 17 8 44 10 62 3 18 7 36 9 40 3 5 8 28 12 53
4 25 8 48 11 51 2 4 6 24 9 45 4 22 8 47 11 56 3 10 8 30 10 45 3 16 9 46 14
68 34 148 -29 280 -144 301 -23 4 -218 8 -435 8 l-395 1 -23 60 c-13 33 -28
69 -32 80 -5 11 -21 49 -36 85 -65 153 -163 356 -220 455 -19 33 -38 67 -43
75 -11 22 -84 134 -91 140 -4 3 -15 18 -24 33 -10 16 -28 41 -40 55 -24 29
-166 171 -188 187 -57 43 -256 147 -378 198 -106 44 -433 143 -531 161 -14 2
-45 9 -70 15 -25 5 -58 12 -75 15 -16 3 -40 8 -51 10 -12 2 -39 7 -60 10 -22
4 -66 11 -99 17 -33 6 -75 12 -94 14 -19 2 -48 6 -65 9 -17 3 -65 8 -106 11
-41 4 -86 9 -100 11 -14 3 -54 7 -90 9 -36 3 -101 7 -145 11 -86 6 -751 15
-757 9z m712 -619 c144 -10 260 -21 345 -32 22 -2 56 -6 75 -9 56 -6 123 -15
150 -20 14 -3 39 -7 55 -10 142 -24 241 -46 445 -100 33 -8 177 -58 210 -72
19 -9 58 -26 86 -39 28 -13 54 -24 58 -24 14 0 142 -87 171 -116 37 -36 145
-193 145 -210 0 -7 4 -14 8 -16 5 -1 22 -30 38 -63 17 -33 37 -71 44 -85 8
-14 15 -27 15 -30 1 -5 17 -40 55 -125 49 -110 95 -223 141 -347 l28 -78
-2473 0 c-1360 0 -2475 3 -2478 6 -3 3 2 26 13 52 15 40 28 73 34 92 1 3 7 19
14 35 7 17 25 62 41 100 15 39 36 88 46 110 10 22 18 42 19 45 4 27 187 376
205 390 3 3 16 21 28 41 49 80 115 132 267 210 65 33 293 119 355 134 8 1 53
13 100 25 47 12 99 24 115 27 17 2 46 8 65 13 19 5 55 12 80 15 24 4 47 8 50
10 3 2 29 6 59 10 30 4 63 9 75 11 12 2 44 7 71 10 28 3 64 7 80 9 31 4 127
13 205 20 25 2 97 7 160 10 63 4 116 7 117 9 5 5 601 -2 683 -8z m-2544 -2409
c177 -46 324 -162 403 -318 22 -43 38 -79 35 -79 -2 0 0 -8 5 -19 21 -38 32
-177 20 -251 -13 -83 -17 -97 -40 -151 -36 -84 -67 -128 -144 -204 -144 -142
-339 -198 -542 -157 -64 13 -178 61 -219 93 -54 42 -153 152 -178 199 -28 53
-53 115 -62 155 -13 56 -16 200 -4 257 30 153 139 315 260 385 25 15 52 32 60
38 8 7 40 20 70 30 30 10 64 21 75 25 22 8 228 6 261 -3z m4519 0 c57 -13 112
-30 130 -40 11 -6 25 -12 30 -13 20 -3 109 -68 155 -113 76 -75 128 -162 157
-266 18 -61 24 -220 11 -278 -5 -23 -11 -49 -13 -57 -2 -8 -10 -28 -19 -45 -9
-16 -16 -35 -16 -41 0 -23 -101 -153 -152 -196 -119 -100 -225 -140 -377 -144
-235 -5 -424 104 -543 312 -21 36 -38 74 -38 83 0 10 -3 21 -7 25 -4 3 -8 12
-9 19 -1 7 -6 30 -10 52 -10 49 -10 178 0 224 48 234 229 419 459 471 75 16
186 19 242 7z"/>
</g>
</svg>
